<svg width="80" height="80" viewBox="0 0 80 80" fill="none" xmlns="http://www.w3.org/2000/svg">
<circle cx="40" cy="40" r="36" stroke="black" stroke-opacity="0.08" stroke-width="8"/>
<path fill-rule="evenodd" clip-rule="evenodd" d="M72 40H80C80 17.9086 62.0914 0 40 0V8C57.6731 8 72 22.3269 72 40Z" fill="#805AD5"/>
<path d="M20.5057 47H29.6818V45.4375H22.9205V45.3239L26.1875 41.8295C28.6875 39.152 29.4261 37.902 29.4261 36.2898C29.4261 34.0455 27.608 32.2557 25.0511 32.2557C22.5014 32.2557 20.5625 33.9886 20.5625 36.5455H22.2386C22.2386 34.8906 23.3111 33.7898 24.9943 33.7898C26.571 33.7898 27.7784 34.7557 27.7784 36.2898C27.7784 37.6321 26.9901 38.6264 25.3068 40.4659L20.5057 45.7216V47ZM37.1605 47.1989C39.9304 47.1989 41.9616 45.1534 41.9616 42.3693C41.9616 39.5497 40.0014 37.483 37.331 37.483C36.3509 37.483 35.3991 37.831 34.8026 38.3068H34.7173L35.2287 34.017H41.3082V32.4545H33.7514L32.8707 39.6136L34.5185 39.8125C35.1222 39.3793 36.152 39.0668 37.0469 39.0739C38.9006 39.0881 40.2571 40.4943 40.2571 42.3977C40.2571 44.2656 38.9503 45.6364 37.1605 45.6364C35.669 45.6364 34.483 44.6776 34.348 43.3636H32.6435C32.75 45.5795 34.6605 47.1989 37.1605 47.1989ZM52.1978 44.2727C52.1978 45.8636 53.1921 47.1989 55.0387 47.1989C56.8569 47.1989 57.8512 45.8636 57.8512 44.2727V43.5057C57.8512 41.9148 56.8853 40.5795 55.0387 40.5795C53.2205 40.5795 52.1978 41.9148 52.1978 43.5057V44.2727ZM44.9535 35.9489C44.9535 37.5398 45.9478 38.875 47.7944 38.875C49.6126 38.875 50.6069 37.5398 50.6069 35.9489V35.1818C50.6069 33.5909 49.641 32.2557 47.7944 32.2557C45.9762 32.2557 44.9535 33.5909 44.9535 35.1818V35.9489ZM45.4933 47H47.1126L57.1126 32.4545H55.4933L45.4933 47ZM53.6467 43.5057C53.6467 42.625 54.0444 41.8011 55.0387 41.8011C56.0614 41.8011 56.4023 42.625 56.4023 43.5057V44.2727C56.4023 45.1534 56.033 45.9773 55.0387 45.9773C54.016 45.9773 53.6467 45.1534 53.6467 44.2727V43.5057ZM46.4023 35.1818C46.4023 34.3011 46.8001 33.4773 47.7944 33.4773C48.8171 33.4773 49.158 34.3011 49.158 35.1818V35.9489C49.158 36.8295 48.7887 37.6534 47.7944 37.6534C46.7717 37.6534 46.4023 36.8295 46.4023 35.9489V35.1818Z" fill="black"/>
</svg>
