<svg width="72" height="72" viewBox="0 0 72 72" fill="none" xmlns="http://www.w3.org/2000/svg">
<g clip-path="url(#clip0_948_917)">
<path d="M10.5 48.5L21 62.5L61.5 61V17.5L46.5 8L11.5 11.5L10.5 48.5Z" fill="white"/>
<path d="M28.0102 7.88403C18.8899 8.56341 11.1366 9.18821 10.7721 9.26137C9.75 9.44487 8.8202 10.1428 8.38299 11.0614L8 11.8697L8.03691 31.134L8.09113 50.3983L8.67485 51.5921C9.00363 52.2529 11.2289 55.3386 13.6549 58.5149C18.4527 64.7768 18.7988 65.1263 20.6226 65.3098C21.1521 65.3644 25.1285 65.1809 29.4338 64.9243C33.7574 64.649 40.6882 64.2263 44.8481 63.9882C62.6145 62.9024 61.702 62.9941 62.723 62.1127C64 61.0477 63.9089 62.7921 63.9631 39.3783C64 19.5264 63.9815 18.2234 63.6897 17.6172C63.3436 16.9378 62.723 16.4605 54.6236 10.7305C49.2063 6.91083 48.8233 6.70876 46.3962 6.67159C45.3937 6.63559 37.1121 7.18606 28.0102 7.88403ZM48.513 10.3995C49.279 10.7479 54.8797 14.6779 55.6999 15.4316C55.9191 15.6522 55.9918 15.8357 55.8822 15.946C55.6272 16.1667 20.9675 18.242 19.9651 18.0945C19.5094 18.0213 18.8345 17.7461 18.4516 17.4883C16.8642 16.4048 12.9247 13.1542 12.9247 12.9161C12.9247 12.2913 12.7966 12.2913 28.2479 11.1718C31.2034 10.9697 36.0554 10.6027 39.0109 10.3635C45.4122 9.84901 47.3283 9.86759 48.513 10.3995ZM59.531 20.4451C59.7859 20.7017 60.0051 21.1976 60.0778 21.6749C60.132 22.1162 60.1689 30.3431 60.132 39.9288C60.0778 56.3826 60.0593 57.4116 59.749 57.8889C59.5667 58.1827 59.2022 58.4951 58.9277 58.5869C58.1628 58.8993 21.8443 60.9746 21.0967 60.7539C20.7507 60.6622 20.2754 60.3684 20.0204 60.1117L19.5821 59.6344L19.5279 41.895C19.4909 29.4443 19.5279 23.9349 19.6744 23.439C19.7839 23.072 20.0574 22.6307 20.295 22.4844C20.6238 22.2637 22.7764 22.0802 30.1824 21.6401C35.3817 21.3462 43.4257 20.8504 48.0412 20.5751C59.0199 19.8946 58.9842 19.8946 59.531 20.4451Z" fill="black"/>
<path d="M49.7716 26.5235C47.8013 26.6524 46.0501 26.8359 45.8494 26.9462C45.2472 27.2586 44.8827 27.7731 44.81 28.3607C44.7558 28.9669 44.9381 29.0401 46.9072 29.2793L47.7644 29.3897V37.231C47.7644 41.8949 47.6917 44.9806 47.6006 44.8889C47.5094 44.7785 44.9196 40.8126 41.8361 36.0743C38.7537 31.3186 36.1996 27.4061 36.1627 27.3701C36.1258 27.3329 34.1197 27.4433 31.7121 27.6093C28.7566 27.8114 27.1335 27.9949 26.8047 28.1784C26.2752 28.4536 25.6915 29.4268 25.6915 30.0702C25.6915 30.4558 26.3848 30.6578 27.8441 30.6578H28.6101V53.2087L27.37 53.5943C26.4033 53.8881 26.0745 54.0716 25.9107 54.4386C25.6189 55.0634 25.6373 55.6324 25.9292 55.6324C26.0388 55.6324 28.1002 55.5035 30.4709 55.3572C35.1591 55.0819 35.6874 54.953 36.18 53.9798C36.3265 53.686 36.4534 53.3736 36.4534 53.2819C36.4534 53.2087 35.8155 52.988 35.0483 52.8046C34.2639 52.6211 33.4794 52.4376 33.3156 52.4004C33.0053 52.3087 32.9868 51.7396 32.9868 43.8425V35.3764L38.5322 44.1363C44.3509 53.3179 45.0811 54.3654 45.9751 54.8241C47.0884 55.4118 49.9158 55.0076 51.3382 54.0716L51.7766 53.7963L51.8135 41.2725L51.8677 28.73L52.8344 28.5465C53.9834 28.3259 54.5129 27.794 54.5129 26.8754C54.5129 26.2877 54.476 26.2506 53.9292 26.2691C53.6027 26.2842 51.7235 26.3946 49.7716 26.5235Z" fill="black"/>
</g>
<defs>
<clipPath id="clip0_948_917">
<rect width="56" height="60" fill="white" transform="translate(8 6)"/>
</clipPath>
</defs>
</svg>
