<svg width="72" height="72" viewBox="0 0 72 72" fill="none" xmlns="http://www.w3.org/2000/svg">
<path fill-rule="evenodd" clip-rule="evenodd" d="M49.2072 46.0764L51 44.2832H27.7176V21L25.924 22.7932L22.5656 19.4348L19.4352 22.5656L22.794 25.9244L21 27.7176V31.3036L15.8484 26.152L12.7176 29.2832L21 37.5656V44.7388L9.1308 32.8696L6 36L36 66L39.1308 62.8696L27.2612 51H34.4348L42.7176 59.2832L45.8484 56.152L40.6964 51H44.2828L46.0764 49.2068L49.4352 52.5656L52.5656 49.4348L49.2072 46.0764ZM51 34.4348V40.6956L56.1524 45.8476L59.2828 42.7176L51 34.4348ZM29.2828 12.7176L26.1524 15.8476L31.3044 21H37.5656L29.2828 12.7176ZM36 6L32.87 9.1308L44.7392 21H51L36 6ZM66 36L62.87 39.1308L51 27.2608V21L66 36Z" fill="#FF6363"/>
</svg>
