<svg width="94" height="25" viewBox="0 0 94 25" fill="none" xmlns="http://www.w3.org/2000/svg">
<path d="M12.3263 24.5713C14.0106 24.5713 15.5158 24.2896 16.8421 23.7261C18.1894 23.1626 19.3263 22.4218 20.2526 21.5035C21.179 20.5643 21.8421 19.5418 22.2421 18.4356L18.3895 16.6513C17.9263 17.82 17.1685 18.7905 16.1158 19.5626C15.0842 20.3139 13.8211 20.6896 12.3263 20.6896C10.8527 20.6896 9.55793 20.3452 8.44211 19.6565C7.32631 18.9678 6.45263 18.0182 5.82105 16.8078C5.18948 15.5765 4.87369 14.147 4.87369 12.5191C4.87369 10.8913 5.18948 9.47214 5.82105 8.26174C6.45263 7.0304 7.32631 6.0809 8.44211 5.41304C9.55793 4.72435 10.8527 4.38 12.3263 4.38C13.8211 4.38 15.0842 4.76612 16.1158 5.53826C17.1685 6.28956 17.9263 7.24953 18.3895 8.41826L22.2421 6.63391C21.8421 5.52779 21.179 4.51568 20.2526 3.59739C19.3263 2.65826 18.1894 1.90696 16.8421 1.34348C15.5158 0.78 14.0106 0.49826 12.3263 0.49826C10.6421 0.49826 9.08424 0.800837 7.65263 1.40609C6.22105 1.9904 4.97895 2.82525 3.92632 3.91043C2.87368 4.97478 2.05263 6.24779 1.46316 7.72956C0.873689 9.1904 0.578949 10.7869 0.578949 12.5191C0.578949 14.2513 0.873689 15.8582 1.46316 17.34C2.05263 18.8008 2.87368 20.0739 3.92632 21.1591C4.97895 22.2443 6.22105 23.0895 7.65263 23.6948C9.08424 24.2791 10.6421 24.5713 12.3263 24.5713ZM32.5258 24.5713C34.1889 24.5713 35.7047 24.1957 37.0732 23.4443C38.4415 22.6722 39.5363 21.6182 40.3574 20.2826C41.1784 18.9261 41.589 17.3921 41.589 15.6809C41.589 13.9696 41.1784 12.4461 40.3574 11.1104C39.5573 9.77482 38.4731 8.72084 37.1047 7.9487C35.7363 7.17655 34.2099 6.79043 32.5258 6.79043C30.8205 6.79043 29.2836 7.17655 27.9153 7.9487C26.5468 8.72084 25.4521 9.77482 24.6311 11.1104C23.831 12.4461 23.4311 13.9696 23.4311 15.6809C23.4311 17.3921 23.831 18.9157 24.6311 20.2513C25.4521 21.5869 26.5468 22.6409 27.9153 23.413C29.3047 24.1852 30.8416 24.5713 32.5258 24.5713ZM32.5258 20.8148C31.5994 20.8148 30.7678 20.5957 30.0311 20.1574C29.3152 19.7191 28.7468 19.1139 28.3258 18.3417C27.9257 17.5487 27.7258 16.6618 27.7258 15.6809C27.7258 14.7 27.9257 13.8234 28.3258 13.0513C28.7468 12.2792 29.3152 11.6739 30.0311 11.2357C30.7678 10.7766 31.5994 10.547 32.5258 10.547C33.452 10.547 34.2626 10.7766 34.9574 11.2357C35.6731 11.6739 36.231 12.2792 36.6311 13.0513C37.052 13.8234 37.2626 14.7 37.2626 15.6809C37.2626 16.6618 37.052 17.5487 36.6311 18.3417C36.231 19.1139 35.6731 19.7191 34.9574 20.1574C34.2626 20.5957 33.452 20.8148 32.5258 20.8148ZM43.7788 24.1957H47.9156V0.49826H43.7788V24.1957ZM50.7877 24.1957H54.9245V0.49826H50.7877V24.1957ZM63.0074 24.5713C65.2389 24.5713 67.0284 23.8408 68.3758 22.38V24.1957H72.2916V12.8635C72.2916 11.6739 71.9863 10.62 71.3758 9.70174C70.7652 8.78345 69.9232 8.07391 68.8495 7.57304C67.7968 7.05134 66.5652 6.79043 65.1546 6.79043C63.4284 6.79043 61.8915 7.19739 60.5441 8.0113C59.1968 8.82522 58.2705 9.90003 57.7652 11.2357L61.1442 12.8635C61.46 12.0913 61.9547 11.4756 62.6284 11.0165C63.302 10.5365 64.0915 10.2965 64.9967 10.2965C65.9442 10.2965 66.7021 10.547 67.2705 11.0478C67.86 11.5279 68.1547 12.133 68.1547 12.8635V13.427L63.0389 14.2409C61.0179 14.5747 59.5231 15.2113 58.5546 16.1504C57.5863 17.0896 57.102 18.2687 57.102 19.6878C57.102 21.1904 57.6389 22.38 58.7125 23.2565C59.7862 24.133 61.2178 24.5713 63.0074 24.5713ZM61.3968 19.5313C61.3968 18.3417 62.2073 17.5904 63.8283 17.2774L68.1547 16.5574V17.2461C68.1547 18.4148 67.7442 19.4061 66.9232 20.22C66.1231 21.0339 65.0705 21.4409 63.7652 21.4409C63.0705 21.4409 62.5021 21.2739 62.06 20.94C61.6179 20.5852 61.3968 20.1156 61.3968 19.5313ZM84.5466 24.5713C86.2098 24.5713 87.694 24.1852 88.9992 23.413C90.3045 22.62 91.3361 21.5556 92.0939 20.22C92.8518 18.8634 93.2308 17.3505 93.2308 15.6809C93.2308 14.0113 92.8518 12.5087 92.0939 11.173C91.3361 9.81649 90.3045 8.75214 88.9992 7.98C87.694 7.18692 86.2203 6.79043 84.5782 6.79043C82.3466 6.79043 80.5888 7.4896 79.3045 8.88783V0.49826H75.1676V24.1957H79.0518V22.2861C79.6834 23.0166 80.4729 23.58 81.4203 23.9765C82.3888 24.373 83.4309 24.5713 84.5466 24.5713ZM84.0729 20.8148C83.1677 20.8148 82.3466 20.5957 81.6097 20.1574C80.894 19.7191 80.3256 19.1139 79.9045 18.3417C79.5045 17.5696 79.3045 16.6826 79.3045 15.6809C79.3045 14.6791 79.5045 13.7921 79.9045 13.02C80.3256 12.2479 80.894 11.6426 81.6097 11.2043C82.3466 10.7661 83.1677 10.547 84.0729 10.547C85.0203 10.547 85.8519 10.7766 86.5676 11.2357C87.3045 11.6739 87.8835 12.2792 88.3045 13.0513C88.7256 13.8234 88.9361 14.7 88.9361 15.6809C88.9361 16.6618 88.7256 17.5487 88.3045 18.3417C87.8835 19.1139 87.3045 19.7191 86.5676 20.1574C85.8519 20.5957 85.0203 20.8148 84.0729 20.8148Z" fill="#080829"/>
</svg>
