<svg width="25" height="25" viewBox="0 0 25 25" fill="none" xmlns="http://www.w3.org/2000/svg">
<path d="M0.426331 5.25652H4.56317V0.873913H0.426331V5.25652ZM0.426331 24.1957H4.56317V7.16609H0.426331V24.1957ZM15.8359 24.5713C17.4987 24.5713 19.0145 24.1957 20.3832 23.4443C21.751 22.6722 22.8464 21.6182 23.6675 20.2826C24.4885 18.9261 24.899 17.3921 24.899 15.6809C24.899 13.9696 24.4885 12.4461 23.6675 11.1104C22.8671 9.77482 21.7826 8.72084 20.4148 7.9487C19.0461 7.17655 17.5194 6.79043 15.8359 6.79043C14.1306 6.79043 12.5931 7.17655 11.2253 7.9487C9.85659 8.72084 8.76218 9.77482 7.94113 11.1104C7.1408 12.4461 6.74014 13.9696 6.74014 15.6809C6.74014 17.3921 7.1408 18.9157 7.94113 20.2513C8.76218 21.5869 9.85659 22.6409 11.2253 23.413C12.6148 24.1852 14.1513 24.5713 15.8359 24.5713ZM15.8359 20.8148C14.9092 20.8148 14.0773 20.5957 13.3411 20.1574C12.6247 19.7191 12.0563 19.1139 11.6359 18.3417C11.2352 17.5487 11.0359 16.6618 11.0359 15.6809C11.0359 14.7 11.2352 13.8234 11.6359 13.0513C12.0563 12.2792 12.6247 11.6739 13.3411 11.2357C14.0773 10.7766 14.9092 10.547 15.8359 10.547C16.7615 10.547 17.5727 10.7766 18.2675 11.2357C18.9829 11.6739 19.5405 12.2792 19.9411 13.0513C20.3615 13.8234 20.5727 14.7 20.5727 15.6809C20.5727 16.6618 20.3615 17.5487 19.9411 18.3417C19.5405 19.1139 18.9829 19.7191 18.2675 20.1574C17.5727 20.5957 16.7615 20.8148 15.8359 20.8148Z" fill="white"/>
</svg>
